<svg xmlns="http://www.w3.org/2000/svg" width="512" height="512" viewBox="0 0 512 512">
  <rect width="512" height="512" rx="104" fill="#F7F6F2"/>
  <ellipse cx="256" cy="480" rx="140" ry="12" fill="#16212B" opacity="0.08"/>
  <path d="M256,238 L190,478 M256,238 L322,478" stroke="#2E6F78" stroke-width="10" stroke-linecap="round" opacity="0.8"/>
  <line x1="256" y1="238" x2="424.0" y2="238.0" stroke="#2E6F78" stroke-width="4" opacity="0.28"/><line x1="256" y1="238" x2="374.8" y2="356.8" stroke="#2E6F78" stroke-width="4" opacity="0.28"/><line x1="256" y1="238" x2="256.0" y2="406.0" stroke="#2E6F78" stroke-width="4" opacity="0.28"/><line x1="256" y1="238" x2="137.2" y2="356.8" stroke="#2E6F78" stroke-width="4" opacity="0.28"/><line x1="256" y1="238" x2="88.0" y2="238.0" stroke="#2E6F78" stroke-width="4" opacity="0.28"/><line x1="256" y1="238" x2="137.2" y2="119.2" stroke="#2E6F78" stroke-width="4" opacity="0.28"/><line x1="256" y1="238" x2="256.0" y2="70.0" stroke="#2E6F78" stroke-width="4" opacity="0.28"/><line x1="256" y1="238" x2="374.8" y2="119.2" stroke="#2E6F78" stroke-width="4" opacity="0.28"/>
  <circle cx="256" cy="238" r="13" fill="#2E6F78"/><circle cx="256" cy="238" r="5" fill="#F7F6F2"/>
  <path d="M260.7,58.1 A180,180 0 0 1 341.9,79.8" stroke="#C25A28" stroke-width="26" fill="none"/><path d="M350.0,84.5 A180,180 0 0 1 409.5,144.0" stroke="#E48A4E" stroke-width="26" fill="none"/><path d="M414.2,152.1 A180,180 0 0 1 435.9,233.3" stroke="#C25A28" stroke-width="26" fill="none"/><path d="M435.9,242.7 A180,180 0 0 1 414.2,323.9" stroke="#E48A4E" stroke-width="26" fill="none"/><path d="M409.5,332.0 A180,180 0 0 1 350.0,391.5" stroke="#C25A28" stroke-width="26" fill="none"/><path d="M341.9,396.2 A180,180 0 0 1 260.7,417.9" stroke="#E48A4E" stroke-width="26" fill="none"/><path d="M251.3,417.9 A180,180 0 0 1 170.1,396.2" stroke="#C25A28" stroke-width="26" fill="none"/><path d="M162.0,391.5 A180,180 0 0 1 102.5,332.0" stroke="#E48A4E" stroke-width="26" fill="none"/><path d="M97.8,323.9 A180,180 0 0 1 76.1,242.7" stroke="#C25A28" stroke-width="26" fill="none"/><path d="M76.1,233.3 A180,180 0 0 1 97.8,152.1" stroke="#E48A4E" stroke-width="26" fill="none"/><path d="M102.5,144.0 A180,180 0 0 1 162.0,84.5" stroke="#C25A28" stroke-width="26" fill="none"/><path d="M170.1,79.8 A180,180 0 0 1 251.3,58.1" stroke="#E48A4E" stroke-width="26" fill="none"/>
  <path d="M367.3,59.9 A210,210 0 0 1 465.9,245.3" stroke="#2E6F78" stroke-width="9" fill="none" stroke-linecap="round"/><polygon points="465.1,267.3 479.9,245.8 451.9,244.8" fill="#2E6F78"/>
  <path d="M122,292 L152,292" stroke="#2E6F78" stroke-width="7" stroke-linecap="round" opacity="0.5"/><path d="M114,318 L148,318" stroke="#2E6F78" stroke-width="7" stroke-linecap="round" opacity="0.35"/><path d="M124,344 L150,344" stroke="#2E6F78" stroke-width="7" stroke-linecap="round" opacity="0.22"/>
  
<g transform="translate(252,327) rotate(-4) scale(0.92)">
  <defs><clipPath id="body"><ellipse cx="0" cy="0" rx="96" ry="74"/></clipPath></defs>
  <path d="M-30,48 L-38,60" stroke="#D48A3C" stroke-width="18" stroke-linecap="round"/>
  <ellipse cx="-40" cy="64" rx="13" ry="7.5" fill="#DE8088"/>
  <path d="M38,48 L49,60" stroke="#D48A3C" stroke-width="16" stroke-linecap="round"/>
  <ellipse cx="52" cy="64" rx="12" ry="7" fill="#DE8088"/>
  <circle cx="-94" cy="6" r="10" fill="#D48A3C"/>
  <ellipse cx="0" cy="0" rx="96" ry="74" fill="#EBAA5C"/>
  <g clip-path="url(#body)">
    <ellipse cx="6" cy="58" rx="84" ry="40" fill="#FDEBD3"/>
    <path d="M-100,-10 C-90,-70 -20,-90 30,-78 C-20,-66 -60,-40 -76,4 Z" fill="#D48A3C" opacity="0.45"/>
  </g>
  <ellipse cx="62" cy="10" rx="30" ry="24" fill="#FDEBD3"/>
  <circle cx="-14" cy="-66" r="21" fill="#EBAA5C"/><circle cx="-14" cy="-66" r="12" fill="#F29CA3"/>
  <circle cx="30" cy="-72" r="19" fill="#EBAA5C"/><circle cx="30" cy="-72" r="10.5" fill="#F29CA3"/>
  <circle cx="30" cy="-16" r="12.5" fill="#16212B"/><circle cx="34.5" cy="-21" r="4.6" fill="#fff"/><circle cx="27" cy="-11" r="2" fill="#fff"/>
  <circle cx="72" cy="-12" r="11.5" fill="#16212B"/><circle cx="76" cy="-16.5" r="4.2" fill="#fff"/><circle cx="69" cy="-7.5" r="1.8" fill="#fff"/>
  <ellipse cx="14" cy="10" rx="13" ry="8" fill="#F6A9AE" opacity="0.9"/>
  <ellipse cx="88" cy="14" rx="9" ry="7" fill="#F6A9AE" opacity="0.9"/>
  <ellipse cx="56" cy="4" rx="7" ry="5" fill="#DE8088"/>
  <path d="M46,13 q5,6 10,0 q5,6 10,0" stroke="#16212B" stroke-width="3" fill="none" stroke-linecap="round"/>
  <path d="M-54,42 L-68,54" stroke="#EBAA5C" stroke-width="20" stroke-linecap="round"/>
  <ellipse cx="-72" cy="58" rx="14" ry="8" fill="#F29CA3"/>
  <path d="M58,40 L74,52" stroke="#EBAA5C" stroke-width="17" stroke-linecap="round"/>
  <ellipse cx="78" cy="56" rx="12.5" ry="7.5" fill="#F29CA3"/>
</g>
</svg>